<mxfile host="Electron" agent="Mozilla/5.0 (Windows NT 10.0; Win64; x64) AppleWebKit/537.36 (KHTML, like Gecko) draw.io/26.0.4 Chrome/128.0.6613.186 Electron/32.2.5 Safari/537.36" version="26.0.4">
  <diagram name="Page-1" id="BUFHam1vUM1glzpvg2zq">
    <mxGraphModel dx="709" dy="458" grid="1" gridSize="10" guides="1" tooltips="1" connect="1" arrows="1" fold="1" page="1" pageScale="1" pageWidth="570" pageHeight="940" math="0" shadow="0">
      <root>
        <mxCell id="0" />
        <mxCell id="1" parent="0" />
        <mxCell id="p1peop-H0kVsQ8enQ9CB-1" value="z = 25.5&lt;div&gt;x&lt;sub&gt;1&lt;/sub&gt;=2.25&lt;/div&gt;&lt;div&gt;x&lt;sub&gt;2&lt;/sub&gt;=1.5&lt;/div&gt;" style="rounded=0;whiteSpace=wrap;html=1;fillColor=none;" vertex="1" parent="1">
          <mxGeometry x="230" y="30" width="70" height="50" as="geometry" />
        </mxCell>
        <mxCell id="p1peop-H0kVsQ8enQ9CB-2" value="z = 23&lt;div&gt;x&lt;sub&gt;1&lt;/sub&gt;=2.5&lt;/div&gt;&lt;div&gt;x&lt;sub&gt;2&lt;/sub&gt;=1&lt;/div&gt;" style="rounded=0;whiteSpace=wrap;html=1;fillColor=none;" vertex="1" parent="1">
          <mxGeometry x="90" y="110" width="70" height="50" as="geometry" />
        </mxCell>
        <mxCell id="p1peop-H0kVsQ8enQ9CB-3" value="z = 20&lt;div&gt;x&lt;sub&gt;1&lt;/sub&gt;=2&lt;/div&gt;&lt;div&gt;x&lt;sub&gt;2&lt;/sub&gt;=1&lt;/div&gt;" style="rounded=0;whiteSpace=wrap;html=1;fillColor=none;" vertex="1" parent="1">
          <mxGeometry x="10" y="200" width="70" height="50" as="geometry" />
        </mxCell>
        <mxCell id="p1peop-H0kVsQ8enQ9CB-4" value="z = 18&lt;div&gt;x&lt;sub&gt;1&lt;/sub&gt;=3&lt;/div&gt;&lt;div&gt;x&lt;sub&gt;2&lt;/sub&gt;=0&lt;/div&gt;" style="rounded=0;whiteSpace=wrap;html=1;fillColor=none;" vertex="1" parent="1">
          <mxGeometry x="170" y="200" width="70" height="50" as="geometry" />
        </mxCell>
        <mxCell id="p1peop-H0kVsQ8enQ9CB-5" value="z = 25&lt;div&gt;x&lt;sub&gt;1&lt;/sub&gt;=1.5&lt;/div&gt;&lt;div&gt;x&lt;sub&gt;2&lt;/sub&gt;=2&lt;/div&gt;" style="rounded=0;whiteSpace=wrap;html=1;fillColor=none;" vertex="1" parent="1">
          <mxGeometry x="360" y="110" width="70" height="50" as="geometry" />
        </mxCell>
        <mxCell id="p1peop-H0kVsQ8enQ9CB-6" value="z = 24.6&lt;div&gt;x&lt;sub&gt;1&lt;/sub&gt;=1&lt;/div&gt;&lt;div&gt;x&lt;sub&gt;2&lt;/sub&gt;=2.3&lt;/div&gt;" style="rounded=0;whiteSpace=wrap;html=1;fillColor=none;" vertex="1" parent="1">
          <mxGeometry x="285" y="200" width="70" height="50" as="geometry" />
        </mxCell>
        <mxCell id="p1peop-H0kVsQ8enQ9CB-7" value="No Solution" style="rounded=0;whiteSpace=wrap;html=1;fillColor=none;" vertex="1" parent="1">
          <mxGeometry x="450" y="200" width="70" height="50" as="geometry" />
        </mxCell>
        <mxCell id="p1peop-H0kVsQ8enQ9CB-8" value="z = 24&lt;div&gt;x&lt;sub&gt;1&lt;/sub&gt;=0&lt;/div&gt;&lt;div&gt;x&lt;sub&gt;2&lt;/sub&gt;=2&lt;/div&gt;" style="rounded=0;whiteSpace=wrap;html=1;fillColor=none;" vertex="1" parent="1">
          <mxGeometry x="370" y="290" width="70" height="50" as="geometry" />
        </mxCell>
        <mxCell id="p1peop-H0kVsQ8enQ9CB-9" value="z = 22&lt;div&gt;x&lt;sub&gt;1&lt;/sub&gt;=1&lt;/div&gt;&lt;div&gt;x&lt;sub&gt;2&lt;/sub&gt;=2&lt;/div&gt;" style="rounded=0;whiteSpace=wrap;html=1;fillColor=none;" vertex="1" parent="1">
          <mxGeometry x="200" y="290" width="70" height="50" as="geometry" />
        </mxCell>
        <mxCell id="p1peop-H0kVsQ8enQ9CB-10" value="" style="endArrow=none;html=1;rounded=0;exitX=1;exitY=0;exitDx=0;exitDy=0;entryX=0;entryY=1;entryDx=0;entryDy=0;" edge="1" parent="1" source="p1peop-H0kVsQ8enQ9CB-2" target="p1peop-H0kVsQ8enQ9CB-1">
          <mxGeometry width="50" height="50" relative="1" as="geometry">
            <mxPoint x="270" y="150" as="sourcePoint" />
            <mxPoint x="320" y="100" as="targetPoint" />
          </mxGeometry>
        </mxCell>
        <mxCell id="p1peop-H0kVsQ8enQ9CB-11" value="" style="endArrow=none;html=1;rounded=0;exitX=0;exitY=0;exitDx=0;exitDy=0;entryX=1;entryY=1;entryDx=0;entryDy=0;" edge="1" parent="1" source="p1peop-H0kVsQ8enQ9CB-5" target="p1peop-H0kVsQ8enQ9CB-1">
          <mxGeometry width="50" height="50" relative="1" as="geometry">
            <mxPoint x="270" y="150" as="sourcePoint" />
            <mxPoint x="320" y="100" as="targetPoint" />
          </mxGeometry>
        </mxCell>
        <mxCell id="p1peop-H0kVsQ8enQ9CB-13" value="" style="endArrow=none;html=1;rounded=0;exitX=1;exitY=0;exitDx=0;exitDy=0;entryX=0;entryY=1;entryDx=0;entryDy=0;" edge="1" parent="1" source="p1peop-H0kVsQ8enQ9CB-3" target="p1peop-H0kVsQ8enQ9CB-2">
          <mxGeometry width="50" height="50" relative="1" as="geometry">
            <mxPoint x="200" y="150" as="sourcePoint" />
            <mxPoint x="250" y="100" as="targetPoint" />
          </mxGeometry>
        </mxCell>
        <mxCell id="p1peop-H0kVsQ8enQ9CB-14" value="" style="endArrow=none;html=1;rounded=0;exitX=0;exitY=0;exitDx=0;exitDy=0;entryX=1;entryY=1;entryDx=0;entryDy=0;" edge="1" parent="1" source="p1peop-H0kVsQ8enQ9CB-4" target="p1peop-H0kVsQ8enQ9CB-2">
          <mxGeometry width="50" height="50" relative="1" as="geometry">
            <mxPoint x="200" y="150" as="sourcePoint" />
            <mxPoint x="250" y="100" as="targetPoint" />
          </mxGeometry>
        </mxCell>
        <mxCell id="p1peop-H0kVsQ8enQ9CB-15" value="" style="endArrow=none;html=1;rounded=0;exitX=1;exitY=0;exitDx=0;exitDy=0;entryX=0;entryY=1;entryDx=0;entryDy=0;" edge="1" parent="1" source="p1peop-H0kVsQ8enQ9CB-6" target="p1peop-H0kVsQ8enQ9CB-5">
          <mxGeometry width="50" height="50" relative="1" as="geometry">
            <mxPoint x="240" y="200" as="sourcePoint" />
            <mxPoint x="290" y="150" as="targetPoint" />
          </mxGeometry>
        </mxCell>
        <mxCell id="p1peop-H0kVsQ8enQ9CB-16" value="" style="endArrow=none;html=1;rounded=0;exitX=0;exitY=0;exitDx=0;exitDy=0;entryX=1;entryY=1;entryDx=0;entryDy=0;" edge="1" parent="1" source="p1peop-H0kVsQ8enQ9CB-7" target="p1peop-H0kVsQ8enQ9CB-5">
          <mxGeometry width="50" height="50" relative="1" as="geometry">
            <mxPoint x="310" y="200" as="sourcePoint" />
            <mxPoint x="360" y="150" as="targetPoint" />
          </mxGeometry>
        </mxCell>
        <mxCell id="p1peop-H0kVsQ8enQ9CB-17" value="" style="endArrow=none;html=1;rounded=0;exitX=0;exitY=0;exitDx=0;exitDy=0;entryX=1;entryY=1;entryDx=0;entryDy=0;" edge="1" parent="1" source="p1peop-H0kVsQ8enQ9CB-8" target="p1peop-H0kVsQ8enQ9CB-6">
          <mxGeometry width="50" height="50" relative="1" as="geometry">
            <mxPoint x="260" y="290" as="sourcePoint" />
            <mxPoint x="310" y="240" as="targetPoint" />
          </mxGeometry>
        </mxCell>
        <mxCell id="p1peop-H0kVsQ8enQ9CB-20" value="" style="endArrow=none;html=1;rounded=0;exitX=1;exitY=0;exitDx=0;exitDy=0;entryX=0;entryY=1;entryDx=0;entryDy=0;" edge="1" parent="1" source="p1peop-H0kVsQ8enQ9CB-9" target="p1peop-H0kVsQ8enQ9CB-6">
          <mxGeometry width="50" height="50" relative="1" as="geometry">
            <mxPoint x="260" y="290" as="sourcePoint" />
            <mxPoint x="310" y="240" as="targetPoint" />
          </mxGeometry>
        </mxCell>
        <mxCell id="p1peop-H0kVsQ8enQ9CB-21" value="&lt;div style=&quot;text-align: center;&quot;&gt;&lt;font style=&quot;font-size: 11px;&quot;&gt;&lt;span style=&quot;text-align: left; background-color: rgb(251, 251, 251);&quot;&gt;x&lt;sub style=&quot;&quot;&gt;2&lt;/sub&gt;&amp;nbsp;&lt;/span&gt;&lt;span style=&quot;background-color: rgb(255, 255, 255); color: rgb(31, 31, 31); font-family: &amp;quot;Google Sans&amp;quot;, Arial, sans-serif; text-align: left;&quot;&gt;≤ 1&lt;/span&gt;&lt;/font&gt;&lt;/div&gt;" style="text;html=1;align=center;verticalAlign=middle;whiteSpace=wrap;rounded=0;" vertex="1" parent="1">
          <mxGeometry x="150" y="70" width="40" height="20" as="geometry" />
        </mxCell>
        <mxCell id="p1peop-H0kVsQ8enQ9CB-23" value="&lt;div style=&quot;text-align: center;&quot;&gt;&lt;font style=&quot;font-size: 11px;&quot;&gt;&lt;span style=&quot;text-align: left; background-color: rgb(251, 251, 251);&quot;&gt;x&lt;sub style=&quot;&quot;&gt;1&lt;/sub&gt;&amp;nbsp;&lt;/span&gt;&lt;span style=&quot;background-color: rgb(255, 255, 255); color: rgb(31, 31, 31); font-family: &amp;quot;Google Sans&amp;quot;, Arial, sans-serif; text-align: left;&quot;&gt;≤ 2&lt;/span&gt;&lt;/font&gt;&lt;/div&gt;" style="text;html=1;align=center;verticalAlign=middle;whiteSpace=wrap;rounded=0;" vertex="1" parent="1">
          <mxGeometry x="30" y="160" width="40" height="20" as="geometry" />
        </mxCell>
        <mxCell id="p1peop-H0kVsQ8enQ9CB-24" value="&lt;div style=&quot;text-align: center;&quot;&gt;&lt;font style=&quot;font-size: 11px;&quot;&gt;&lt;span style=&quot;text-align: left; background-color: rgb(251, 251, 251);&quot;&gt;x&lt;sub style=&quot;&quot;&gt;1&lt;/sub&gt;&amp;nbsp;&lt;/span&gt;&lt;span style=&quot;background-color: rgb(255, 255, 255); color: rgb(31, 31, 31); font-family: &amp;quot;Google Sans&amp;quot;, Arial, sans-serif; text-align: left;&quot;&gt;≤ 1&lt;/span&gt;&lt;/font&gt;&lt;/div&gt;" style="text;html=1;align=center;verticalAlign=middle;whiteSpace=wrap;rounded=0;" vertex="1" parent="1">
          <mxGeometry x="310" y="170" width="40" height="20" as="geometry" />
        </mxCell>
        <mxCell id="p1peop-H0kVsQ8enQ9CB-25" value="&lt;div style=&quot;text-align: center;&quot;&gt;&lt;font style=&quot;font-size: 11px;&quot;&gt;&lt;span style=&quot;text-align: left; background-color: rgb(251, 251, 251);&quot;&gt;x&lt;sub style=&quot;&quot;&gt;2&lt;/sub&gt;&amp;nbsp;&lt;/span&gt;&lt;span style=&quot;background-color: rgb(255, 255, 255); color: rgb(31, 31, 31); font-family: &amp;quot;Google Sans&amp;quot;, Arial, sans-serif; text-align: left;&quot;&gt;≤ 2&lt;/span&gt;&lt;/font&gt;&lt;/div&gt;" style="text;html=1;align=center;verticalAlign=middle;whiteSpace=wrap;rounded=0;" vertex="1" parent="1">
          <mxGeometry x="230" y="260" width="40" height="20" as="geometry" />
        </mxCell>
        <mxCell id="p1peop-H0kVsQ8enQ9CB-26" value="&lt;span style=&quot;color: rgb(31, 31, 31); font-family: &amp;quot;Google Sans&amp;quot;, Arial, sans-serif; text-align: left; background-color: rgb(255, 255, 255);&quot;&gt;&lt;font style=&quot;font-size: 11px;&quot;&gt;x&lt;sub&gt;2&amp;nbsp;&lt;/sub&gt;≥ 2&lt;/font&gt;&lt;/span&gt;" style="text;html=1;align=center;verticalAlign=middle;whiteSpace=wrap;rounded=0;" vertex="1" parent="1">
          <mxGeometry x="330" y="70" width="50" height="20" as="geometry" />
        </mxCell>
        <mxCell id="p1peop-H0kVsQ8enQ9CB-27" value="&lt;span style=&quot;color: rgb(31, 31, 31); font-family: &amp;quot;Google Sans&amp;quot;, Arial, sans-serif; text-align: left; background-color: rgb(255, 255, 255);&quot;&gt;&lt;font style=&quot;font-size: 11px;&quot;&gt;x&lt;sub&gt;1&amp;nbsp;&lt;/sub&gt;≥ 2&lt;/font&gt;&lt;/span&gt;" style="text;html=1;align=center;verticalAlign=middle;whiteSpace=wrap;rounded=0;" vertex="1" parent="1">
          <mxGeometry x="450" y="170" width="50" height="20" as="geometry" />
        </mxCell>
        <mxCell id="p1peop-H0kVsQ8enQ9CB-28" value="&lt;span style=&quot;color: rgb(31, 31, 31); font-family: &amp;quot;Google Sans&amp;quot;, Arial, sans-serif; text-align: left; background-color: rgb(255, 255, 255);&quot;&gt;&lt;font style=&quot;font-size: 11px;&quot;&gt;x&lt;sub&gt;2&amp;nbsp;&lt;/sub&gt;≥ 3&lt;/font&gt;&lt;/span&gt;" style="text;html=1;align=center;verticalAlign=middle;whiteSpace=wrap;rounded=0;" vertex="1" parent="1">
          <mxGeometry x="370" y="260" width="50" height="20" as="geometry" />
        </mxCell>
        <mxCell id="p1peop-H0kVsQ8enQ9CB-29" value="&lt;span style=&quot;color: rgb(31, 31, 31); font-family: &amp;quot;Google Sans&amp;quot;, Arial, sans-serif; text-align: left; background-color: rgb(255, 255, 255);&quot;&gt;&lt;font style=&quot;font-size: 11px;&quot;&gt;x&lt;sub&gt;1&amp;nbsp;&lt;/sub&gt;≥ 3&lt;/font&gt;&lt;/span&gt;" style="text;html=1;align=center;verticalAlign=middle;whiteSpace=wrap;rounded=0;" vertex="1" parent="1">
          <mxGeometry x="180" y="170" width="50" height="20" as="geometry" />
        </mxCell>
      </root>
    </mxGraphModel>
  </diagram>
</mxfile>
